<svg width="54" height="54" viewBox="0 0 54 54" fill="none" xmlns="http://www.w3.org/2000/svg">
<path d="M24.334 20.5311V48.5554H13.492V11.4046C14.968 11.4046 17.8675 14.7304 19.2701 16.2468C20.6727 17.7631 21.6014 18.7947 24.334 20.5311Z" fill="url(#paint0_linear_201_2)"/>
<path d="M30.7029 31.8165C29.4686 31.8165 28.0615 32.1192 26.4816 32.7244C16.7834 36.4399 19.289 38.468 20.8533 37.1126C21.6584 36.415 20.8533 48.5259 20.8533 30.8438C21.668 28.1778 25.0252 26.3692 27.0001 25.5117C28.9749 24.6543 31.2213 23.7211 33.2948 23.7211C36.8989 23.7211 39.639 24.9064 41.5152 27.277C43.3913 29.5972 44.3293 32.8757 44.3293 37.1126V48.5554H34.4517V38.842C34.4517 34.6051 34.1095 31.8165 30.7029 31.8165Z" fill="url(#paint1_linear_201_2)"/>
<path d="M1.67255 15.225C3.92388 5.74568 9.5522 1.00604 18.5575 1.00604C32.0655 1.00604 33.754 11.6702 40.508 13.4476C45.0106 14.6325 48.9505 12.8551 52.3275 8.11551C50.0761 17.5948 44.4478 22.3344 35.4425 22.3344C21.9345 22.3344 20.246 11.6702 13.492 9.89287C8.98937 8.70796 5.04954 10.4853 1.67255 15.225Z" fill="url(#paint2_linear_201_2)"/>
<defs>
<linearGradient id="paint0_linear_201_2" x1="52.3275" y1="24.7807" x2="-4.39527" y2="24.7807" gradientUnits="userSpaceOnUse">
<stop offset="0.00144968" stop-color="#4F46E5"/>
<stop offset="0.985185" stop-color="#EC4899"/>
</linearGradient>
<linearGradient id="paint1_linear_201_2" x1="52.3275" y1="24.7807" x2="-4.39527" y2="24.7807" gradientUnits="userSpaceOnUse">
<stop offset="0.00144968" stop-color="#4F46E5"/>
<stop offset="0.985185" stop-color="#EC4899"/>
</linearGradient>
<linearGradient id="paint2_linear_201_2" x1="52.3275" y1="24.7807" x2="-4.39527" y2="24.7807" gradientUnits="userSpaceOnUse">
<stop offset="0.00144968" stop-color="#4F46E5"/>
<stop offset="0.985185" stop-color="#EC4899"/>
</linearGradient>
</defs>
</svg>
